<svg width="491" height="133" viewBox="0 0 491 133" fill="none" xmlns="http://www.w3.org/2000/svg">
<path d="M31.792 21.28C30.9813 19.7867 29.808 18.656 28.272 17.888C26.7787 17.0773 25.008 16.672 22.96 16.672C19.4187 16.672 16.5813 17.8453 14.448 20.192C12.3147 22.496 11.248 25.5893 11.248 29.472C11.248 33.6107 12.3573 36.8533 14.576 39.2C16.8373 41.504 19.9307 42.656 23.856 42.656C26.544 42.656 28.8053 41.9733 30.64 40.608C32.5173 39.2427 33.8827 37.28 34.736 34.72H20.848V26.656H44.656V36.832C43.8453 39.5627 42.4587 42.1013 40.496 44.448C38.576 46.7947 36.1227 48.6933 33.136 50.144C30.1493 51.5947 26.7787 52.32 23.024 52.32C18.5867 52.32 14.6187 51.36 11.12 49.44C7.664 47.4773 4.95467 44.768 2.992 41.312C1.072 37.856 0.112 33.9093 0.112 29.472C0.112 25.0347 1.072 21.088 2.992 17.632C4.95467 14.1333 7.664 11.424 11.12 9.504C14.576 7.54133 18.5227 6.56 22.96 6.56C28.336 6.56 32.8587 7.86133 36.528 10.464C40.24 13.0667 42.6933 16.672 43.888 21.28H31.792ZM66.974 52.512C63.4753 52.512 60.318 51.7653 57.502 50.272C54.7287 48.7787 52.5313 46.6453 50.91 43.872C49.3313 41.0987 48.542 37.856 48.542 34.144C48.542 30.4747 49.3527 27.2533 50.974 24.48C52.5953 21.664 54.814 19.5093 57.63 18.016C60.446 16.5227 63.6033 15.776 67.102 15.776C70.6007 15.776 73.758 16.5227 76.574 18.016C79.39 19.5093 81.6087 21.664 83.23 24.48C84.8513 27.2533 85.662 30.4747 85.662 34.144C85.662 37.8133 84.83 41.056 83.166 43.872C81.5447 46.6453 79.3047 48.7787 76.446 50.272C73.63 51.7653 70.4727 52.512 66.974 52.512ZM66.974 43.04C69.0647 43.04 70.8353 42.272 72.286 40.736C73.7793 39.2 74.526 37.0027 74.526 34.144C74.526 31.2853 73.8007 29.088 72.35 27.552C70.942 26.016 69.1927 25.248 67.102 25.248C64.9687 25.248 63.198 26.016 61.79 27.552C60.382 29.0453 59.678 31.2427 59.678 34.144C59.678 37.0027 60.3607 39.2 61.726 40.736C63.134 42.272 64.8833 43.04 66.974 43.04ZM111.372 42.72V52H105.804C101.836 52 98.7427 51.04 96.524 49.12C94.3053 47.1573 93.196 43.9787 93.196 39.584V25.376H88.844V16.288H93.196V7.584H104.14V16.288H111.308V25.376H104.14V39.712C104.14 40.7787 104.396 41.5467 104.908 42.016C105.42 42.4853 106.273 42.72 107.468 42.72H111.372ZM128.855 34.08C128.855 30.4107 129.537 27.1893 130.903 24.416C132.311 21.6427 134.209 19.5093 136.599 18.016C138.988 16.5227 141.655 15.776 144.599 15.776C147.116 15.776 149.313 16.288 151.191 17.312C153.111 18.336 154.583 19.68 155.607 21.344V16.288H166.551V52H155.607V46.944C154.54 48.608 153.047 49.952 151.127 50.976C149.249 52 147.052 52.512 144.535 52.512C141.633 52.512 138.988 51.7653 136.599 50.272C134.209 48.736 132.311 46.5813 130.903 43.808C129.537 40.992 128.855 37.7493 128.855 34.08ZM155.607 34.144C155.607 31.4133 154.839 29.2587 153.303 27.68C151.809 26.1013 149.975 25.312 147.799 25.312C145.623 25.312 143.767 26.1013 142.231 27.68C140.737 29.216 139.991 31.3493 139.991 34.08C139.991 36.8107 140.737 38.9867 142.231 40.608C143.767 42.1867 145.623 42.976 147.799 42.976C149.975 42.976 151.809 42.1867 153.303 40.608C154.839 39.0293 155.607 36.8747 155.607 34.144ZM198.975 21.344C200.041 19.68 201.513 18.336 203.391 17.312C205.268 16.288 207.465 15.776 209.983 15.776C212.927 15.776 215.593 16.5227 217.983 18.016C220.372 19.5093 222.249 21.6427 223.615 24.416C225.023 27.1893 225.727 30.4107 225.727 34.08C225.727 37.7493 225.023 40.992 223.615 43.808C222.249 46.5813 220.372 48.736 217.983 50.272C215.593 51.7653 212.927 52.512 209.983 52.512C207.508 52.512 205.311 52 203.391 50.976C201.513 49.952 200.041 48.6293 198.975 47.008V69.024H188.031V16.288H198.975V21.344ZM214.591 34.08C214.591 31.3493 213.823 29.216 212.287 27.68C210.793 26.1013 208.937 25.312 206.719 25.312C204.543 25.312 202.687 26.1013 201.151 27.68C199.657 29.2587 198.911 31.4133 198.911 34.144C198.911 36.8747 199.657 39.0293 201.151 40.608C202.687 42.1867 204.543 42.976 206.719 42.976C208.895 42.976 210.751 42.1867 212.287 40.608C213.823 38.9867 214.591 36.8107 214.591 34.08ZM242.412 22.24C243.692 20.2773 245.292 18.7413 247.212 17.632C249.132 16.48 251.265 15.904 253.612 15.904V27.488H250.604C247.873 27.488 245.825 28.0853 244.46 29.28C243.095 30.432 242.412 32.48 242.412 35.424V52H231.468V16.288H242.412V22.24ZM275.099 52.512C271.6 52.512 268.443 51.7653 265.627 50.272C262.854 48.7787 260.656 46.6453 259.035 43.872C257.456 41.0987 256.667 37.856 256.667 34.144C256.667 30.4747 257.478 27.2533 259.099 24.48C260.72 21.664 262.939 19.5093 265.755 18.016C268.571 16.5227 271.728 15.776 275.227 15.776C278.726 15.776 281.883 16.5227 284.699 18.016C287.515 19.5093 289.734 21.664 291.355 24.48C292.976 27.2533 293.787 30.4747 293.787 34.144C293.787 37.8133 292.955 41.056 291.291 43.872C289.67 46.6453 287.43 48.7787 284.571 50.272C281.755 51.7653 278.598 52.512 275.099 52.512ZM275.099 43.04C277.19 43.04 278.96 42.272 280.411 40.736C281.904 39.2 282.651 37.0027 282.651 34.144C282.651 31.2853 281.926 29.088 280.475 27.552C279.067 26.016 277.318 25.248 275.227 25.248C273.094 25.248 271.323 26.016 269.915 27.552C268.507 29.0453 267.803 31.2427 267.803 34.144C267.803 37.0027 268.486 39.2 269.851 40.736C271.259 42.272 273.008 43.04 275.099 43.04ZM305.033 12.576C303.113 12.576 301.534 12.0213 300.297 10.912C299.102 9.76 298.505 8.352 298.505 6.688C298.505 4.98133 299.102 3.57333 300.297 2.464C301.534 1.312 303.113 0.735996 305.033 0.735996C306.91 0.735996 308.446 1.312 309.641 2.464C310.878 3.57333 311.497 4.98133 311.497 6.688C311.497 8.352 310.878 9.76 309.641 10.912C308.446 12.0213 306.91 12.576 305.033 12.576ZM310.537 56.608C310.537 61.0027 309.428 64.16 307.209 66.08C304.99 68.0427 301.897 69.024 297.929 69.024H293.641V59.744H296.265C297.46 59.744 298.313 59.5093 298.825 59.04C299.337 58.5707 299.593 57.8027 299.593 56.736V16.288H310.537V56.608ZM352.069 33.568C352.069 34.592 352.006 35.6587 351.878 36.768H327.11C327.28 38.9867 327.984 40.6933 329.222 41.888C330.502 43.04 332.059 43.616 333.894 43.616C336.624 43.616 338.523 42.464 339.59 40.16H351.238C350.64 42.5067 349.552 44.6187 347.974 46.496C346.438 48.3733 344.496 49.8453 342.15 50.912C339.803 51.9787 337.179 52.512 334.278 52.512C330.779 52.512 327.664 51.7653 324.934 50.272C322.203 48.7787 320.07 46.6453 318.534 43.872C316.998 41.0987 316.23 37.856 316.23 34.144C316.23 30.432 316.976 27.1893 318.47 24.416C320.006 21.6427 322.139 19.5093 324.87 18.016C327.6 16.5227 330.736 15.776 334.278 15.776C337.734 15.776 340.806 16.5013 343.494 17.952C346.182 19.4027 348.272 21.472 349.766 24.16C351.302 26.848 352.069 29.984 352.069 33.568ZM340.87 30.688C340.87 28.8107 340.23 27.3173 338.95 26.208C337.67 25.0987 336.07 24.544 334.15 24.544C332.315 24.544 330.758 25.0773 329.478 26.144C328.24 27.2107 327.472 28.7253 327.174 30.688H340.87ZM355.667 34.144C355.667 30.432 356.414 27.1893 357.907 24.416C359.443 21.6427 361.555 19.5093 364.243 18.016C366.974 16.5227 370.088 15.776 373.587 15.776C378.067 15.776 381.8 16.9493 384.787 19.296C387.816 21.6427 389.8 24.9493 390.739 29.216H379.091C378.11 26.4853 376.211 25.12 373.395 25.12C371.39 25.12 369.79 25.9093 368.595 27.488C367.4 29.024 366.803 31.2427 366.803 34.144C366.803 37.0453 367.4 39.2853 368.595 40.864C369.79 42.4 371.39 43.168 373.395 43.168C376.211 43.168 378.11 41.8027 379.091 39.072H390.739C389.8 43.2533 387.816 46.5387 384.787 48.928C381.758 51.3173 378.024 52.512 373.587 52.512C370.088 52.512 366.974 51.7653 364.243 50.272C361.555 48.7787 359.443 46.6453 357.907 43.872C356.414 41.0987 355.667 37.856 355.667 34.144ZM416.497 42.72V52H410.929C406.961 52 403.868 51.04 401.649 49.12C399.43 47.1573 398.321 43.9787 398.321 39.584V25.376H393.969V16.288H398.321V7.584H409.265V16.288H416.433V25.376H409.265V39.712C409.265 40.7787 409.521 41.5467 410.033 42.016C410.545 42.4853 411.398 42.72 412.593 42.72H416.497ZM441.66 12.576C439.74 12.576 438.161 12.0213 436.924 10.912C435.729 9.76 435.132 8.352 435.132 6.688C435.132 4.98133 435.729 3.57333 436.924 2.464C438.161 1.312 439.74 0.735996 441.66 0.735996C443.537 0.735996 445.073 1.312 446.268 2.464C447.505 3.57333 448.124 4.98133 448.124 6.688C448.124 8.352 447.505 9.76 446.268 10.912C445.073 12.0213 443.537 12.576 441.66 12.576ZM447.1 16.288V52H436.156V16.288H447.1ZM476.791 15.904C480.972 15.904 484.3 17.2693 486.775 20C489.292 22.688 490.551 26.4 490.551 31.136V52H479.671V32.608C479.671 30.2187 479.052 28.3627 477.815 27.04C476.577 25.7173 474.913 25.056 472.823 25.056C470.732 25.056 469.068 25.7173 467.831 27.04C466.593 28.3627 465.975 30.2187 465.975 32.608V52H455.031V16.288H465.975V21.024C467.084 19.4453 468.577 18.208 470.455 17.312C472.332 16.3733 474.444 15.904 476.791 15.904Z" fill="#EEEEEE"/>
<path d="M47.536 95.904C51.9733 95.904 55.4933 97.248 58.096 99.936C60.7413 102.624 62.064 106.357 62.064 111.136V132H51.184V112.608C51.184 110.304 50.5653 108.533 49.328 107.296C48.1333 106.016 46.4693 105.376 44.336 105.376C42.2027 105.376 40.5173 106.016 39.28 107.296C38.0853 108.533 37.488 110.304 37.488 112.608V132H26.608V112.608C26.608 110.304 25.9893 108.533 24.752 107.296C23.5573 106.016 21.8933 105.376 19.76 105.376C17.6267 105.376 15.9413 106.016 14.704 107.296C13.5093 108.533 12.912 110.304 12.912 112.608V132H1.968V96.288H12.912V100.768C14.0213 99.2747 15.472 98.1013 17.264 97.248C19.056 96.352 21.0827 95.904 23.344 95.904C26.032 95.904 28.4213 96.48 30.512 97.632C32.6453 98.784 34.3093 100.427 35.504 102.56C36.7413 100.597 38.4267 98.9973 40.56 97.76C42.6933 96.5227 45.0187 95.904 47.536 95.904ZM75.222 92.576C73.302 92.576 71.7233 92.0213 70.486 90.912C69.2913 89.76 68.694 88.352 68.694 86.688C68.694 84.9813 69.2913 83.5733 70.486 82.464C71.7233 81.312 73.302 80.736 75.222 80.736C77.0993 80.736 78.6353 81.312 79.83 82.464C81.0673 83.5733 81.686 84.9813 81.686 86.688C81.686 88.352 81.0673 89.76 79.83 90.912C78.6353 92.0213 77.0993 92.576 75.222 92.576ZM80.662 96.288V132H69.718V96.288H80.662ZM110.353 95.904C114.534 95.904 117.862 97.2693 120.337 100C122.854 102.688 124.113 106.4 124.113 111.136V132H113.233V112.608C113.233 110.219 112.614 108.363 111.377 107.04C110.14 105.717 108.476 105.056 106.385 105.056C104.294 105.056 102.63 105.717 101.393 107.04C100.156 108.363 99.537 110.219 99.537 112.608V132H88.593V96.288H99.537V101.024C100.646 99.4453 102.14 98.208 104.017 97.312C105.894 96.3733 108.006 95.904 110.353 95.904ZM129.542 114.08C129.542 110.411 130.225 107.189 131.59 104.416C132.998 101.643 134.897 99.5093 137.286 98.016C139.675 96.5227 142.342 95.776 145.286 95.776C147.633 95.776 149.766 96.2667 151.686 97.248C153.649 98.2293 155.185 99.552 156.294 101.216V84.64H167.238V132H156.294V126.88C155.27 128.587 153.798 129.952 151.878 130.976C150.001 132 147.803 132.512 145.286 132.512C142.342 132.512 139.675 131.765 137.286 130.272C134.897 128.736 132.998 126.581 131.59 123.808C130.225 120.992 129.542 117.749 129.542 114.08ZM156.294 114.144C156.294 111.413 155.526 109.259 153.99 107.68C152.497 106.101 150.662 105.312 148.486 105.312C146.31 105.312 144.454 106.101 142.918 107.68C141.425 109.216 140.678 111.349 140.678 114.08C140.678 116.811 141.425 118.987 142.918 120.608C144.454 122.187 146.31 122.976 148.486 122.976C150.662 122.976 152.497 122.187 153.99 120.608C155.526 119.029 156.294 116.875 156.294 114.144ZM188.276 84.576C192.841 84.576 196.489 85.7707 199.22 88.16C201.993 90.5493 203.38 93.92 203.38 98.272C203.38 102.283 202.057 105.419 199.412 107.68C196.809 109.899 193.353 111.029 189.044 111.072L188.724 115.872H179.124L178.804 103.968H182.644C185.929 103.968 188.425 103.563 190.132 102.752C191.881 101.941 192.756 100.469 192.756 98.336C192.756 96.8427 192.35 95.6693 191.54 94.816C190.729 93.9627 189.598 93.536 188.148 93.536C186.612 93.536 185.417 93.984 184.564 94.88C183.71 95.7333 183.284 96.9067 183.284 98.4H172.98C172.894 95.7973 173.428 93.4507 174.58 91.36C175.774 89.2693 177.524 87.6267 179.828 86.432C182.174 85.1947 184.99 84.576 188.276 84.576ZM184.052 132.512C182.132 132.512 180.553 131.957 179.316 130.848C178.121 129.696 177.524 128.288 177.524 126.624C177.524 124.917 178.121 123.488 179.316 122.336C180.553 121.184 182.132 120.608 184.052 120.608C185.929 120.608 187.465 121.184 188.66 122.336C189.897 123.488 190.516 124.917 190.516 126.624C190.516 128.288 189.897 129.696 188.66 130.848C187.465 131.957 185.929 132.512 184.052 132.512Z" fill="#00ADB5"/>
</svg>
