<svg width="404" height="473" viewBox="0 0 404 473" fill="none" xmlns="http://www.w3.org/2000/svg">
<path fill-rule="evenodd" clip-rule="evenodd" d="M293.611 94.8613C291.169 93.9701 288.842 92.6677 286.72 90.8593C270.696 77.2081 277.567 56.6121 287.264 45.8895C296.962 35.1668 356.284 39.4439 328.299 89.1176C328.181 89.1887 328.061 89.2602 327.939 89.3321C324.81 99.2876 327.449 107.827 330.615 118.072C331.906 122.251 333.285 126.714 334.396 131.672L304.716 129.546C296.558 118.468 293.466 107.302 293.611 94.8613Z" fill="#F5B9AB"/>
<path d="M286.72 90.8593L286.266 91.3917L286.72 90.8593ZM293.611 94.8613L293.851 94.2042C294.13 94.3059 294.314 94.5726 294.311 94.8695L293.611 94.8613ZM287.264 45.8895L287.783 46.3586L287.264 45.8895ZM328.299 89.1176L328.909 89.4609C328.849 89.5662 328.764 89.6544 328.66 89.7168L328.299 89.1176ZM327.939 89.3321L327.272 89.1224C327.324 88.957 327.435 88.8168 327.585 88.729L327.939 89.3321ZM330.615 118.072L329.946 118.279L330.615 118.072ZM334.396 131.672L335.078 131.519C335.127 131.735 335.07 131.961 334.926 132.129C334.782 132.296 334.567 132.386 334.346 132.37L334.396 131.672ZM304.716 129.546L304.666 130.243C304.462 130.229 304.274 130.125 304.153 129.96L304.716 129.546ZM287.173 90.3269C289.229 92.078 291.481 93.3397 293.851 94.2042L293.372 95.5183C290.856 94.6005 288.456 93.2574 286.266 91.3917L287.173 90.3269ZM287.783 46.3586C283.016 51.63 278.95 59.3275 278.042 67.3548C277.138 75.3498 279.361 83.671 287.173 90.3269L286.266 91.3917C278.055 84.3964 275.702 75.594 276.652 67.1976C277.598 58.8334 281.816 50.8717 286.746 45.4203L287.783 46.3586ZM327.69 88.7743C334.639 76.4394 336.097 67.0464 334.378 60.0665C332.664 53.1054 327.752 48.3927 321.613 45.4871C315.465 42.5767 308.134 41.5073 301.738 41.8334C298.543 41.9963 295.602 42.5065 293.176 43.296C290.737 44.0898 288.88 45.1461 287.783 46.3586L286.746 45.4203C288.073 43.9522 290.191 42.7965 292.743 41.9659C295.308 41.131 298.374 40.6042 301.667 40.4363C308.246 40.1009 315.815 41.1949 322.212 44.2227C328.618 47.2552 333.895 52.2555 335.736 59.732C337.573 67.1896 335.952 76.9589 328.909 89.4609L327.69 88.7743ZM327.585 88.729C327.705 88.6584 327.823 88.5882 327.939 88.5185L328.66 89.7168C328.54 89.7891 328.418 89.862 328.293 89.9351L327.585 88.729ZM329.946 118.279C326.79 108.062 324.068 99.3161 327.272 89.1224L328.606 89.5418C325.552 99.2591 328.108 107.591 331.283 117.866L329.946 118.279ZM333.713 131.825C332.609 126.898 331.238 122.46 329.946 118.279L331.283 117.866C332.573 122.042 333.96 126.53 335.078 131.519L333.713 131.825ZM304.766 128.848L334.446 130.975L334.346 132.37L304.666 130.243L304.766 128.848ZM294.311 94.8695C294.167 107.169 297.218 118.185 305.279 129.131L304.153 129.96C295.899 118.752 292.764 107.435 292.912 94.8531L294.311 94.8695Z" fill="black"/>
<path d="M333.624 59.1205C338.268 65.582 333.266 81.5407 329.575 85.5323C360.158 68.5629 340.796 30.276 331.36 37.2578C329.822 23.1026 313.58 18.1083 302.507 30.0799C274.747 7.66167 273.286 45.8616 283.085 51.671C292.883 57.4803 304.771 51.948 310.94 54.9437C317.11 57.9394 320.917 76.0854 322.915 66.0141C324.914 55.9427 327.818 51.0436 333.624 59.1205Z" fill="#00ADB5" stroke="black" stroke-width="1.39887"/>
<path d="M361.072 340.989L318.023 337.865L328.383 221.989C328.383 221.989 278.437 103.63 321.312 103.63C381.893 103.63 402.151 196.966 401.396 221.989C400.64 247.012 361.072 340.989 361.072 340.989Z" fill="#EEEEEE" stroke="black" stroke-width="1.39887"/>
<path d="M317.697 342.877L318.299 337.645L361.651 339.387L360.695 347.795C359.15 361.389 345.534 370.155 332.519 365.935C322.72 362.757 316.52 353.111 317.697 342.877Z" fill="#F5B9AB" stroke="black" stroke-width="1.39887" stroke-linejoin="round"/>
<path d="M255.211 257.602C227.208 230.451 262.008 140.516 267.684 129.813C275.947 114.561 300.75 88.0278 333.852 103.912C383.909 127.932 361.035 246.78 352.037 287.978L255.211 257.602Z" fill="#EEEEEE" stroke="black" stroke-width="1.39887"/>
<path d="M37.1542 351.857L32.6416 311.065C32.6416 311.065 137.411 277.111 223.758 264.371L342.316 274.612C360.125 316.696 351.342 394.038 219.256 358.481L37.1542 351.857Z" fill="#00ADB5" stroke="black" stroke-width="1.39887"/>
<path fill-rule="evenodd" clip-rule="evenodd" d="M164.109 280.389L145.494 338.285L106.438 336.377L88.617 228.371C85.6647 210.479 99.4687 194.21 117.603 194.21L141.767 194.21L143.436 191.601L151.548 194.21C158.031 194.218 163.901 196.281 168.658 199.714L332.786 252.51C358.168 260.675 369.585 290.144 356.327 313.278L331.219 357.092C318.186 379.835 287.714 385.179 267.72 368.228L164.109 280.389Z" fill="#00ADB5"/>
<path d="M164.109 280.389L164.561 279.855L163.763 279.179L163.443 280.175L164.109 280.389ZM145.494 338.285L145.46 338.983L145.996 339.009L146.16 338.499L145.494 338.285ZM106.438 336.377L105.747 336.49L105.839 337.048L106.403 337.075L106.438 336.377ZM88.617 228.371L89.3071 228.257L88.617 228.371ZM117.603 194.21V194.91V194.21ZM141.767 194.21V194.91H142.15L142.356 194.587L141.767 194.21ZM143.436 191.601L143.651 190.935L143.138 190.77L142.847 191.224L143.436 191.601ZM151.548 194.21L151.334 194.876L151.438 194.91L151.547 194.91L151.548 194.21ZM168.658 199.714L168.249 200.281L168.339 200.346L168.444 200.38L168.658 199.714ZM332.786 252.51L333 251.844L332.786 252.51ZM356.327 313.278L356.934 313.626L356.327 313.278ZM331.219 357.092L330.612 356.744L331.219 357.092ZM267.72 368.228L268.172 367.694L267.72 368.228ZM163.443 280.175L144.828 338.07L146.16 338.499L164.775 280.603L163.443 280.175ZM145.528 337.586L106.472 335.678L106.403 337.075L145.46 338.983L145.528 337.586ZM107.128 336.263L89.3071 228.257L87.9269 228.485L105.747 336.49L107.128 336.263ZM89.3071 228.257C86.4251 210.791 99.9004 194.91 117.603 194.91L117.603 193.511C99.0369 193.511 84.9043 210.166 87.9269 228.485L89.3071 228.257ZM117.603 194.91L141.767 194.91V193.511L117.603 193.511V194.91ZM142.356 194.587L144.026 191.978L142.847 191.224L141.178 193.833L142.356 194.587ZM143.222 192.267L151.334 194.876L151.762 193.544L143.651 190.935L143.222 192.267ZM151.547 194.91C157.879 194.917 163.606 196.931 168.249 200.281L169.068 199.147C164.195 195.631 158.183 193.519 151.549 193.511L151.547 194.91ZM168.444 200.38L332.571 253.176L333 251.844L168.873 199.048L168.444 200.38ZM332.571 253.176C357.53 261.204 368.757 290.182 355.72 312.931L356.934 313.626C370.412 290.106 358.806 260.145 333 251.844L332.571 253.176ZM355.72 312.931L330.612 356.744L331.826 357.44L356.934 313.626L355.72 312.931ZM330.612 356.744C317.796 379.108 287.833 384.363 268.172 367.694L267.267 368.761C287.595 385.995 318.575 380.562 331.826 357.44L330.612 356.744ZM268.172 367.694L164.561 279.855L163.657 280.923L267.267 368.761L268.172 367.694Z" fill="black"/>
<path d="M105.988 335.936L145.926 338.298L149.022 371.825C149.022 371.825 113.986 370.809 92.7321 364.161L107.018 357.14L105.988 335.936Z" fill="#EEEEEE" stroke="black" stroke-width="1.39887" stroke-linejoin="round"/>
<rect width="97.773" height="18.3324" rx="2.00878" transform="matrix(0.258819 0.965926 0.965926 -0.258819 92.5281 91.5376)" fill="#EEEEEE" stroke="black" stroke-width="1.39887"/>
<rect width="97.773" height="18.3324" rx="2.00878" transform="matrix(-1 0 0 1 211.723 176.418)" fill="#00ADB5" stroke="black" stroke-width="1.39887"/>
<path d="M32.9524 311.095L37.8922 351.877L8.0809 360.105C8.0809 360.105 2.46425 324.966 5.18598 302.521L15.0313 315.456L32.9524 311.095Z" fill="#EEEEEE" stroke="black" stroke-width="1.39887" stroke-linejoin="round"/>
<path d="M180.994 205.615L203.366 168.338L271.96 205.689C268.815 162.582 298.402 100.546 329.471 104.325C383.976 110.953 343.821 245.301 308.116 268.983C272.41 292.664 180.994 205.615 180.994 205.615Z" fill="#EEEEEE"/>
<path d="M351.174 186.777C342.738 222.124 324.933 257.829 308.116 268.983C272.41 292.664 180.994 205.615 180.994 205.615L203.366 168.338L271.96 205.689L295.274 147.2" stroke="black" stroke-width="1.39887"/>
<path d="M199.293 165.51L203.578 168.573L181.038 205.645L174.148 200.734C163.007 192.792 161.94 176.633 171.941 167.296C179.471 160.266 190.913 159.519 199.293 165.51Z" fill="#F5B9AB" stroke="black" stroke-width="1.39887" stroke-linejoin="round"/>
<ellipse cx="174" cy="387" rx="174" ry="12" fill="black" fill-opacity="0.44"/>
</svg>
