<svg width="534" height="65" viewBox="0 0 534 65" fill="none" xmlns="http://www.w3.org/2000/svg">
<path d="M51.848 3.072V48H40.904V21.056L30.856 48H22.024L11.912 20.992V48H0.968V3.072H13.896L26.504 34.176L38.984 3.072H51.848ZM96.198 12.288L73.798 64.96H62.022L70.214 46.784L55.686 12.288H67.91L76.166 34.624L84.358 12.288H96.198ZM124.662 18.24C125.942 16.2773 127.542 14.7413 129.462 13.632C131.382 12.48 133.515 11.904 135.862 11.904V23.488H132.854C130.123 23.488 128.075 24.0853 126.71 25.28C125.345 26.432 124.662 28.48 124.662 31.424V48H113.718V12.288H124.662V18.24ZM174.757 29.568C174.757 30.592 174.693 31.6587 174.565 32.768H149.797C149.968 34.9867 150.672 36.6933 151.909 37.888C153.189 39.04 154.746 39.616 156.581 39.616C159.312 39.616 161.21 38.464 162.277 36.16H173.925C173.328 38.5067 172.24 40.6187 170.661 42.496C169.125 44.3733 167.184 45.8453 164.837 46.912C162.49 47.9787 159.866 48.512 156.965 48.512C153.466 48.512 150.352 47.7653 147.621 46.272C144.89 44.7787 142.757 42.6453 141.221 39.872C139.685 37.0987 138.917 33.856 138.917 30.144C138.917 26.432 139.664 23.1893 141.157 20.416C142.693 17.6427 144.826 15.5093 147.557 14.016C150.288 12.5227 153.424 11.776 156.965 11.776C160.421 11.776 163.493 12.5013 166.181 13.952C168.869 15.4027 170.96 17.472 172.453 20.16C173.989 22.848 174.757 25.984 174.757 29.568ZM163.557 26.688C163.557 24.8107 162.917 23.3173 161.637 22.208C160.357 21.0987 158.757 20.544 156.837 20.544C155.002 20.544 153.445 21.0773 152.165 22.144C150.928 23.2107 150.16 24.7253 149.861 26.688H163.557ZM178.355 30.144C178.355 26.432 179.101 23.1893 180.595 20.416C182.131 17.6427 184.243 15.5093 186.931 14.016C189.661 12.5227 192.776 11.776 196.275 11.776C200.755 11.776 204.488 12.9493 207.475 15.296C210.504 17.6427 212.488 20.9493 213.427 25.216H201.779C200.797 22.4853 198.899 21.12 196.083 21.12C194.077 21.12 192.477 21.9093 191.283 23.488C190.088 25.024 189.491 27.2427 189.491 30.144C189.491 33.0453 190.088 35.2853 191.283 36.864C192.477 38.4 194.077 39.168 196.083 39.168C198.899 39.168 200.797 37.8027 201.779 35.072H213.427C212.488 39.2533 210.504 42.5387 207.475 44.928C204.445 47.3173 200.712 48.512 196.275 48.512C192.776 48.512 189.661 47.7653 186.931 46.272C184.243 44.7787 182.131 42.6453 180.595 39.872C179.101 37.0987 178.355 33.856 178.355 30.144ZM252.944 29.568C252.944 30.592 252.881 31.6587 252.753 32.768H227.985C228.155 34.9867 228.859 36.6933 230.097 37.888C231.377 39.04 232.934 39.616 234.769 39.616C237.499 39.616 239.398 38.464 240.465 36.16H252.113C251.515 38.5067 250.427 40.6187 248.849 42.496C247.313 44.3733 245.371 45.8453 243.025 46.912C240.678 47.9787 238.054 48.512 235.153 48.512C231.654 48.512 228.539 47.7653 225.809 46.272C223.078 44.7787 220.945 42.6453 219.409 39.872C217.873 37.0987 217.105 33.856 217.105 30.144C217.105 26.432 217.851 23.1893 219.345 20.416C220.881 17.6427 223.014 15.5093 225.745 14.016C228.475 12.5227 231.611 11.776 235.153 11.776C238.609 11.776 241.681 12.5013 244.369 13.952C247.057 15.4027 249.147 17.472 250.641 20.16C252.177 22.848 252.944 25.984 252.944 29.568ZM241.745 26.688C241.745 24.8107 241.105 23.3173 239.825 22.208C238.545 21.0987 236.945 20.544 235.025 20.544C233.19 20.544 231.633 21.0773 230.353 22.144C229.115 23.2107 228.347 24.7253 228.049 26.688H241.745ZM280.478 11.904C284.659 11.904 287.987 13.2693 290.462 16C292.979 18.688 294.238 22.4 294.238 27.136V48H283.358V28.608C283.358 26.2187 282.739 24.3627 281.502 23.04C280.265 21.7173 278.601 21.056 276.51 21.056C274.419 21.056 272.755 21.7173 271.518 23.04C270.281 24.3627 269.662 26.2187 269.662 28.608V48H258.718V12.288H269.662V17.024C270.771 15.4453 272.265 14.208 274.142 13.312C276.019 12.3733 278.131 11.904 280.478 11.904ZM321.747 38.72V48H316.179C312.211 48 309.118 47.04 306.899 45.12C304.68 43.1573 303.571 39.9787 303.571 35.584V21.376H299.219V12.288H303.571V3.584H314.515V12.288H321.683V21.376H314.515V35.712C314.515 36.7787 314.771 37.5467 315.283 38.016C315.795 38.4853 316.648 38.72 317.843 38.72H321.747Z" fill="#EEEEEE"/>
<path d="M392.67 12.288L383.006 48H370.91L365.278 24.832L359.454 48H347.422L337.694 12.288H348.638L353.694 37.824L359.71 12.288H371.294L377.374 37.696L382.366 12.288H392.67ZM413.099 48.512C409.6 48.512 406.443 47.7653 403.627 46.272C400.854 44.7787 398.656 42.6453 397.035 39.872C395.456 37.0987 394.667 33.856 394.667 30.144C394.667 26.4747 395.478 23.2533 397.099 20.48C398.72 17.664 400.939 15.5093 403.755 14.016C406.571 12.5227 409.728 11.776 413.227 11.776C416.726 11.776 419.883 12.5227 422.699 14.016C425.515 15.5093 427.734 17.664 429.355 20.48C430.976 23.2533 431.787 26.4747 431.787 30.144C431.787 33.8133 430.955 37.056 429.291 39.872C427.67 42.6453 425.43 44.7787 422.571 46.272C419.755 47.7653 416.598 48.512 413.099 48.512ZM413.099 39.04C415.19 39.04 416.96 38.272 418.411 36.736C419.904 35.2 420.651 33.0027 420.651 30.144C420.651 27.2853 419.926 25.088 418.475 23.552C417.067 22.016 415.318 21.248 413.227 21.248C411.094 21.248 409.323 22.016 407.915 23.552C406.507 25.0453 405.803 27.2427 405.803 30.144C405.803 33.0027 406.486 35.2 407.851 36.736C409.259 38.272 411.008 39.04 413.099 39.04ZM448.537 18.24C449.817 16.2773 451.417 14.7413 453.337 13.632C455.257 12.48 457.39 11.904 459.737 11.904V23.488H456.729C453.998 23.488 451.95 24.0853 450.585 25.28C449.22 26.432 448.537 28.48 448.537 31.424V48H437.593V12.288H448.537V18.24ZM486.792 48L475.912 33.024V48H464.968V0.639999H475.912V26.816L486.728 12.288H500.232L485.384 30.208L500.36 48H486.792ZM519.059 48.512C515.944 48.512 513.171 47.9787 510.739 46.912C508.307 45.8453 506.387 44.3947 504.979 42.56C503.571 40.6827 502.781 38.592 502.611 36.288H513.427C513.555 37.5253 514.131 38.528 515.155 39.296C516.179 40.064 517.437 40.448 518.931 40.448C520.296 40.448 521.341 40.192 522.067 39.68C522.835 39.1253 523.219 38.4213 523.219 37.568C523.219 36.544 522.685 35.7973 521.619 35.328C520.552 34.816 518.824 34.2613 516.435 33.664C513.875 33.0667 511.741 32.448 510.035 31.808C508.328 31.1253 506.856 30.08 505.619 28.672C504.381 27.2213 503.763 25.28 503.763 22.848C503.763 20.8 504.317 18.944 505.427 17.28C506.579 15.5733 508.243 14.2293 510.419 13.248C512.637 12.2667 515.261 11.776 518.291 11.776C522.771 11.776 526.291 12.8853 528.851 15.104C531.453 17.3227 532.947 20.2667 533.331 23.936H523.219C523.048 22.6987 522.493 21.7173 521.555 20.992C520.659 20.2667 519.464 19.904 517.971 19.904C516.691 19.904 515.709 20.16 515.027 20.672C514.344 21.1413 514.003 21.8027 514.003 22.656C514.003 23.68 514.536 24.448 515.603 24.96C516.712 25.472 518.419 25.984 520.723 26.496C523.368 27.1787 525.523 27.8613 527.187 28.544C528.851 29.184 530.301 30.2507 531.539 31.744C532.819 33.1947 533.48 35.1573 533.523 37.632C533.523 39.7227 532.925 41.6 531.731 43.264C530.579 44.8853 528.893 46.1653 526.675 47.104C524.499 48.0427 521.96 48.512 519.059 48.512Z" fill="#00ADB5"/>
</svg>
